<?xml version="1.0" encoding="utf-8"?>
<!-- Generator: Adobe Illustrator 15.0.2, SVG Export Plug-In . SVG Version: 6.00 Build 0)  -->
<!DOCTYPE svg PUBLIC "-//W3C//DTD SVG 1.1//EN" "http://www.w3.org/Graphics/SVG/1.1/DTD/svg11.dtd">
<svg version="1.1" id="Layer_1" xmlns="http://www.w3.org/2000/svg" xmlns:xlink="http://www.w3.org/1999/xlink" x="0px" y="0px"
	 width="229.384px" height="110.427px" viewBox="0 0 229.384 110.427" enable-background="new 0 0 229.384 110.427"
	 xml:space="preserve">
<g>
	<polygon fill="#414042" stroke="#6D6E71" stroke-width="2" stroke-miterlimit="10" points="28.07,13.06 55.485,14.376 66.1,22.767 
		63.695,35.325 51.405,34.168 	"/>
	<polygon fill="#915944" points="62.256,108.094 51.035,108.094 51.035,34.345 62.256,35.325 	"/>
	<rect x="61.469" y="37.062" fill="#9B5F49" width="106.076" height="31.128"/>
	<rect x="79.751" y="44.361" fill="#F9F5BC" width="7.62" height="8.819"/>
	<rect x="93.78" y="44.361" fill="#F9F5BC" width="7.623" height="8.819"/>
	<rect x="134.265" y="44.361" fill="#F9F5BC" width="7.62" height="8.819"/>
	<rect x="107.007" y="44.361" fill="#F9F5BC" width="7.622" height="8.819"/>
	<rect x="121.038" y="44.361" fill="#F9F5BC" width="7.621" height="8.819"/>
	<g>
		<polygon fill="#414042" stroke="#6D6E71" stroke-width="2" stroke-miterlimit="10" points="167.506,37.046 59.071,37.046 
			64.013,20.988 162.896,20.988 		"/>
		<polygon fill="#414042" stroke="#6D6E71" stroke-width="2" stroke-miterlimit="10" points="162.962,20.629 64.097,20.593 
			70.205,10.188 157.811,10.188 		"/>
		<g>
			<rect x="68.659" y="5.962" fill-rule="evenodd" clip-rule="evenodd" fill="#A5654E" width="5.981" height="10.796"/>
			<rect x="69.781" y="0.858" fill-rule="evenodd" clip-rule="evenodd" fill="#A5654E" width="3.737" height="7.654"/>
		</g>
		<g>
			<rect x="151.489" y="5.962" fill-rule="evenodd" clip-rule="evenodd" fill="#A5654E" width="5.981" height="10.796"/>
			<rect x="152.611" y="0.858" fill-rule="evenodd" clip-rule="evenodd" fill="#A5654E" width="3.738" height="7.654"/>
		</g>
	</g>
	<g>
		<rect x="3.299" y="33.627" fill="#A5654E" width="48.235" height="74.154"/>
		<rect x="13.27" y="78.033" fill="#F9F5BC" width="11.189" height="17.235"/>
		<rect x="28.562" y="78.033" fill="#F9F5BC" width="11.19" height="17.235"/>
		<rect x="13.27" y="56.387" fill="#F9F5BC" width="7.091" height="17.236"/>
		<rect x="22.962" y="56.387" fill="#F9F5BC" width="7.091" height="17.236"/>
		<rect x="32.66" y="56.387" fill="#F9F5BC" width="7.093" height="17.236"/>
		<rect x="13.27" y="44.361" fill="#F9F5BC" width="7.091" height="8.819"/>
		<rect x="22.962" y="44.361" fill="#F9F5BC" width="7.091" height="8.819"/>
		<rect x="32.66" y="44.361" fill="#F9F5BC" width="7.093" height="8.819"/>
		<polygon fill="#414042" stroke="#6D6E71" stroke-width="2" stroke-miterlimit="10" points="27.305,12.846 39.574,23.305 
			51.411,33.892 27.305,34.018 3.201,33.892 15.037,23.305 		"/>
	</g>
	<polygon fill="#414042" stroke="#6D6E71" stroke-width="2" stroke-miterlimit="10" points="201.564,13.06 174.149,14.376 
		163.534,22.767 165.938,35.325 178.229,34.168 	"/>
	<polygon fill="#915944" points="167.377,108.094 178.6,108.094 178.6,34.345 167.377,35.325 	"/>
	<g>
		<rect x="178.1" y="33.627" fill="#A5654E" width="48.235" height="74.154"/>
		<rect x="205.175" y="78.033" fill="#F9F5BC" width="11.189" height="17.235"/>
		<rect x="189.882" y="78.033" fill="#F9F5BC" width="11.19" height="17.235"/>
		<rect x="209.273" y="56.387" fill="#F9F5BC" width="7.092" height="17.236"/>
		<rect x="199.581" y="56.387" fill="#F9F5BC" width="7.092" height="17.236"/>
		<rect x="189.882" y="56.387" fill="#F9F5BC" width="7.093" height="17.236"/>
		<rect x="209.273" y="44.361" fill="#F9F5BC" width="7.092" height="8.819"/>
		<rect x="199.581" y="44.361" fill="#F9F5BC" width="7.092" height="8.819"/>
		<rect x="189.882" y="44.361" fill="#F9F5BC" width="7.093" height="8.819"/>
		<polygon fill="#414042" stroke="#6D6E71" stroke-width="2" stroke-miterlimit="10" points="202.329,12.846 190.061,23.305 
			178.224,33.892 202.329,34.018 226.434,33.892 214.597,23.305 		"/>
	</g>
	<g>
		<rect x="57.318" y="65.006" fill="#A5654E" width="114.76" height="43.264"/>
		<rect x="78.157" y="65.606" fill="#CCCECF" width="68.942" height="35.675"/>
		<rect x="100.402" y="86.049" fill="#FFFFFF" width="24.451" height="14.83"/>
		<rect x="100.402" y="79.635" fill="#FFFFFF" width="24.451" height="5.347"/>
		<rect x="76.553" y="69.881" fill="#B7B9BB" width="72.149" height="5.48"/>
		<g>
			
				<rect x="103.585" y="86.91" fill="#414042" stroke="#FFFFFF" stroke-width="2" stroke-miterlimit="10" width="8.466" height="13.969"/>
			
				<rect x="113.205" y="86.91" fill="#414042" stroke="#FFFFFF" stroke-width="2" stroke-miterlimit="10" width="8.467" height="13.969"/>
		</g>
		<rect x="84.834" y="79.637" fill="#F9F5BC" width="12.024" height="17.235"/>
		<rect x="128.525" y="79.637" fill="#F9F5BC" width="12.025" height="17.235"/>
		<rect x="69.938" y="100.479" fill="#DEC9AB" width="85.378" height="4.408"/>
		<rect x="64.327" y="105.287" fill="#DEC9AB" width="96.601" height="4.41"/>
	</g>
	<g>
		<rect x="79.207" y="22.718" fill="#FFFFFF" width="9.411" height="6.89"/>
		<ellipse fill="#FFFFFF" cx="83.912" cy="22.771" rx="4.706" ry="3.446"/>
	</g>
	<g>
		<rect x="97.731" y="22.718" fill="#FFFFFF" width="9.412" height="6.89"/>
		<ellipse fill="#FFFFFF" cx="102.437" cy="22.771" rx="4.706" ry="3.446"/>
	</g>
	<g>
		<rect x="116.257" y="22.718" fill="#FFFFFF" width="9.412" height="6.89"/>
		<ellipse fill="#FFFFFF" cx="120.963" cy="22.771" rx="4.706" ry="3.446"/>
	</g>
	<g>
		<rect x="134.782" y="22.718" fill="#FFFFFF" width="9.414" height="6.89"/>
		<ellipse fill="#FFFFFF" cx="139.489" cy="22.771" rx="4.707" ry="3.446"/>
	</g>
</g>
</svg>
