<?xml version="1.0" encoding="utf-8"?>
<!-- Generator: Adobe Illustrator 15.0.2, SVG Export Plug-In . SVG Version: 6.00 Build 0)  -->
<!DOCTYPE svg PUBLIC "-//W3C//DTD SVG 1.1//EN" "http://www.w3.org/Graphics/SVG/1.1/DTD/svg11.dtd">
<svg version="1.1" id="Layer_1" xmlns="http://www.w3.org/2000/svg" xmlns:xlink="http://www.w3.org/1999/xlink" x="0px" y="0px"
	 width="278.199px" height="204.739px" viewBox="0 0 278.199 204.739" enable-background="new 0 0 278.199 204.739"
	 xml:space="preserve">
<g>
	<path fill="#A5654E" d="M1.706,102.001l10.108,70.755c0,0,22.743,31.166,124.663,31.166c101.92,0,128.875-26.113,128.875-26.113
		l11.791-78.335L1.706,102.001z"/>
	<path fill="#FFFFFF" d="M277.142,99.474c-69.911,34.535-235.005,26.11-275.437,2.527c0,0,24.428-90.129,131.403-90.129
		C240.081,11.872,277.142,99.474,277.142,99.474z"/>
	<path fill="#414042" d="M277.142,93.858C207.231,128.393,42.137,119.97,1.706,96.386c0,0,24.428-90.128,131.403-90.128
		C240.081,6.258,277.142,93.858,277.142,93.858z"/>
	<path fill="#FFFFFF" d="M277.142,89.367c-69.911,34.534-235.005,26.112-275.437,2.526c0,0,24.428-90.129,131.403-90.129
		C240.081,1.765,277.142,89.367,277.142,89.367z"/>
	<path fill="#FFFFFF" d="M267.082,162.165c0,0-21.897,26.949-129.144,26.949c-107.243,0-128.581-32.564-128.581-32.564l-0.374-3.416
		c0,0,25.079,30.367,128.955,30.367c103.875,0,130.546-26.951,130.546-26.951L267.082,162.165z"/>
	<path fill="#FFFFFF" d="M264.86,177.325c0,0-21.521,26.951-126.908,26.951c-105.388,0-126.354-32.566-126.354-32.566l-0.37-3.416
		c0,0,24.647,30.367,126.724,30.367c102.078,0,128.288-26.951,128.288-26.951L264.86,177.325z"/>
	<g>
		<line fill="none" stroke="#FFFFFF" stroke-width="5" stroke-miterlimit="10" x1="7.708" y1="104.654" x2="16.129" y2="160.239"/>
		<line fill="none" stroke="#FFFFFF" stroke-width="5" stroke-miterlimit="10" x1="33.395" y1="111.392" x2="38.028" y2="170.766"/>
		<line fill="none" stroke="#FFFFFF" stroke-width="5" stroke-miterlimit="10" x1="67.083" y1="117.287" x2="69.189" y2="179.188"/>
		
			<line fill="none" stroke="#FFFFFF" stroke-width="5" stroke-miterlimit="10" x1="109.614" y1="120.235" x2="109.614" y2="184.663"/>
		
			<line fill="none" stroke="#FFFFFF" stroke-width="5" stroke-miterlimit="10" x1="164.777" y1="121.076" x2="162.25" y2="185.084"/>
		
			<line fill="none" stroke="#FFFFFF" stroke-width="5" stroke-miterlimit="10" x1="204.781" y1="116.865" x2="201.414" y2="180.452"/>
		
			<line fill="none" stroke="#FFFFFF" stroke-width="5" stroke-miterlimit="10" x1="244.364" y1="109.707" x2="237.626" y2="172.45"/>
		
			<line fill="none" stroke="#FFFFFF" stroke-width="5" stroke-miterlimit="10" x1="267.947" y1="101.705" x2="262.049" y2="162.344"/>
	</g>
	<ellipse fill="#B7B9BB" cx="131.762" cy="7.193" rx="14.038" ry="2.246"/>
</g>
</svg>
