<?xml version="1.0" encoding="utf-8"?>
<!-- Generator: Adobe Illustrator 15.0.2, SVG Export Plug-In . SVG Version: 6.00 Build 0)  -->
<!DOCTYPE svg PUBLIC "-//W3C//DTD SVG 1.1//EN" "http://www.w3.org/Graphics/SVG/1.1/DTD/svg11.dtd">
<svg version="1.1" id="Layer_1" xmlns="http://www.w3.org/2000/svg" xmlns:xlink="http://www.w3.org/1999/xlink" x="0px" y="0px"
	 width="137.915px" height="154.502px" viewBox="0 0 137.915 154.502" enable-background="new 0 0 137.915 154.502"
	 xml:space="preserve">
<g>
	<rect x="7.216" y="67.764" fill="#A5654E" width="123.539" height="85.474"/>
	<g>
		<rect x="21.269" y="72.436" fill="#F9F5BC" width="8.096" height="17.437"/>
		<rect x="39.018" y="72.436" fill="#F9F5BC" width="8.096" height="17.437"/>
	</g>
	<g>
		<rect x="21.269" y="97.968" fill="#F9F5BC" width="8.096" height="17.438"/>
		<rect x="39.018" y="97.968" fill="#F9F5BC" width="8.096" height="17.438"/>
	</g>
	<g>
		<rect x="21.269" y="123.423" fill="#F9F5BC" width="8.096" height="17.437"/>
		<rect x="39.018" y="123.423" fill="#F9F5BC" width="8.096" height="17.437"/>
	</g>
	<g>
		<rect x="92.264" y="72.436" fill="#F9F5BC" width="8.097" height="17.437"/>
		<rect x="110.013" y="72.436" fill="#F9F5BC" width="8.096" height="17.437"/>
	</g>
	<g>
		<rect x="92.264" y="97.968" fill="#F9F5BC" width="8.097" height="17.438"/>
		<rect x="110.013" y="97.968" fill="#F9F5BC" width="8.096" height="17.438"/>
	</g>
	<rect x="64.938" y="97.968" fill="#F9F5BC" width="8.096" height="17.438"/>
	<rect x="64.938" y="72.436" fill="#F9F5BC" width="8.096" height="17.437"/>
	<g>
		<rect x="92.264" y="123.423" fill="#F9F5BC" width="8.097" height="17.437"/>
		<rect x="110.013" y="123.423" fill="#F9F5BC" width="8.096" height="17.437"/>
	</g>
	
		<rect x="61.201" y="127.472" fill="#414042" stroke="#E1E2E3" stroke-width="2" stroke-miterlimit="10" width="15.57" height="25.688"/>
	<path fill-rule="evenodd" clip-rule="evenodd" fill="#E1E2E3" d="M76.397,127.221c-1.262-3.278-4.104-5.567-7.412-5.567
		c-3.309,0-6.151,2.289-7.411,5.567H76.397z"/>
	<path fill-rule="evenodd" clip-rule="evenodd" fill="#E1E2E3" d="M76.964,6.406c-1.261-3.277-4.102-5.567-7.412-5.567
		c-3.309,0-6.149,2.29-7.41,5.567H76.964z"/>
	<polygon fill="#414042" points="137.358,68.698 0.975,68.698 25.885,42.853 115.562,42.853 	"/>
	<g>
		<rect x="30.688" y="50.015" fill-rule="evenodd" clip-rule="evenodd" fill="#A5654E" width="7.473" height="12.846"/>
		<rect x="32.089" y="43.943" fill-rule="evenodd" clip-rule="evenodd" fill="#A5654E" width="4.671" height="9.109"/>
	</g>
	<g>
		<rect x="102.304" y="50.015" fill-rule="evenodd" clip-rule="evenodd" fill="#A5654E" width="7.474" height="12.846"/>
		<rect x="103.706" y="43.943" fill-rule="evenodd" clip-rule="evenodd" fill="#A5654E" width="4.671" height="9.109"/>
	</g>
	<rect x="58.158" y="33.649" fill="#E1E2E3" width="22.791" height="20.959"/>
	<rect x="61.318" y="6.811" fill="#E1E2E3" width="16.469" height="26.838"/>
	<circle fill="#CCCECF" cx="69.553" cy="43.166" r="5.76"/>
	<circle fill="#CCCECF" cx="69.553" cy="12.649" r="3.581"/>
</g>
</svg>
