<?xml version="1.0" encoding="utf-8"?>
<!-- Generator: Adobe Illustrator 15.0.2, SVG Export Plug-In . SVG Version: 6.00 Build 0)  -->
<!DOCTYPE svg PUBLIC "-//W3C//DTD SVG 1.1//EN" "http://www.w3.org/Graphics/SVG/1.1/DTD/svg11.dtd">
<svg version="1.1" id="Layer_1" xmlns="http://www.w3.org/2000/svg" xmlns:xlink="http://www.w3.org/1999/xlink" x="0px" y="0px"
	 width="2685px" height="325px" viewBox="0 0 2685 325" enable-background="new 0 0 2685 325" xml:space="preserve">
<path fill="#68BC7C" d="M2684.177,14.047c-99.596,0-178.009,74.82-448.177,74.82S1954.014,0.845,1760.546,0.845
	s-361.751,109.077-476.229,109.077L1225.108,112C1028.303,103,902.92,4.53,728.876,4.53C546.864,4.53,476,75,388,75
	C202.11,75,187.004,16.748,0,14.072v0.641c0.463,8.465,0,310.895,0,310.895L2684.966,325
	C2684.966,325,2685.169,14.047,2684.177,14.047z"/>
<path fill="#4D4D4D" d="M2684.875,116.881c-0.655,0.121-1.176,0.235-1.855,0.369c-194.528,38.331-370.174,54.701-431.545,48.297
	l0.025-0.047c-71-10-424.833-69.5-580.5-69.5c-189,0-195,65-335,65c-69.065,0-156-31-317-72s-394,22-439,29c-104,21-210,35-328,7
	c-70.867-16.816-169-24-252-8v48c0,0,27-10,88-7s190.99,24.298,250,26c104,3,177.251-4.852,230.125-15.426
	c0,0,248.988-53.997,334.484-53.997c85.495,0,272.535,76.827,367.481,89.996C1439,228,1553.549,156.53,1654.667,149
	c125.333-9.333,512.833,49,578.376,56C2296,213,2355,205,2478,192c103.02-10.889,179.938-22,206.938-27.25L2684.875,116.881z"/>
<g>
	<g>
		<path fill="none" stroke="#FFFFFF" stroke-width="4" stroke-miterlimit="10" d="M2683.999,137.667
			c-2.971,1.095-6.484,2.192-10.491,3.289"/>
		<path fill="none" stroke="#FFFFFF" stroke-width="4" stroke-miterlimit="10" stroke-dasharray="21.9148,21.9148" d="
			M2652.167,145.914C2550.957,166.415,2301.994,185.235,2237,182c-60.222-2.998-435.938-60.428-560.431-60.428
			s-229.489,61.497-338.983,65.996s-307.484-76.496-400.48-92.995c-92.994-16.499-203.184,22.272-343.482,46.498
			C484,160,415,172,319,160c-89.959-11.245-188.699-33.027-296.22-20.913"/>
		<path fill="none" stroke="#FFFFFF" stroke-width="4" stroke-miterlimit="10" d="M11.892,140.428C8.271,140.912,4.64,141.435,1,142
			"/>
	</g>
</g>
</svg>
