<?xml version="1.0" encoding="utf-8"?>
<!-- Generator: Adobe Illustrator 15.0.2, SVG Export Plug-In . SVG Version: 6.00 Build 0)  -->
<!DOCTYPE svg PUBLIC "-//W3C//DTD SVG 1.1//EN" "http://www.w3.org/Graphics/SVG/1.1/DTD/svg11.dtd">
<svg version="1.1" id="Layer_1" xmlns="http://www.w3.org/2000/svg" xmlns:xlink="http://www.w3.org/1999/xlink" x="0px" y="0px"
	 width="258.871px" height="159.799px" viewBox="0 0 258.871 159.799" enable-background="new 0 0 258.871 159.799"
	 xml:space="preserve">
<path fill="#FFFFFF" d="M207.693,55.107c-1.876,0-3.727,0.101-5.55,0.296C201.74,24.736,176.773,0,146.014,0
	c-19.426,0-36.543,9.863-46.627,24.852c-8.756-3.927-18.454-6.128-28.673-6.128C31.949,18.724,0,50.149,0,88.912
	c0,37.739,27.595,68.508,66.595,70.113v0.153l134,0.62v-0.107c2,0.039,3.964,0.064,4.808,0.064
	c28.896,0,53.469-23.427,53.469-52.322C258.871,78.535,236.591,55.107,207.693,55.107z"/>
</svg>
