<?xml version="1.0" encoding="utf-8"?>
<!-- Generator: Adobe Illustrator 15.0.2, SVG Export Plug-In . SVG Version: 6.00 Build 0)  -->
<!DOCTYPE svg PUBLIC "-//W3C//DTD SVG 1.1//EN" "http://www.w3.org/Graphics/SVG/1.1/DTD/svg11.dtd">
<svg version="1.1" id="Layer_1" xmlns="http://www.w3.org/2000/svg" xmlns:xlink="http://www.w3.org/1999/xlink" x="0px" y="0px"
	 width="399.824px" height="227.925px" viewBox="0 0 399.824 227.925" enable-background="new 0 0 399.824 227.925"
	 xml:space="preserve">
<g>
	<g>
		<rect x="248.817" y="116.921" fill="#F9F5BC" width="12.975" height="19.459"/>
		<rect x="238.352" y="116.921" fill="#F9F5BC" width="7.667" height="19.459"/>
		<rect x="264.594" y="116.921" fill="#F9F5BC" width="7.666" height="19.459"/>
	</g>
	<g>
		<rect x="244.755" y="19.167" fill="#FFFFFF" width="3.243" height="19.755"/>
		<rect x="250.358" y="19.167" fill="#FFFFFF" width="3.242" height="19.755"/>
	</g>
	<rect x="5.467" y="83.794" fill="#9E614B" width="214.056" height="48.307"/>
	<g>
		<rect x="252.616" y="58.284" fill="#EEEEEF" width="19.463" height="41.869"/>
		<rect x="226.276" y="58.284" fill="#EEEEEF" width="20.247" height="41.869"/>
		<rect x="236.302" y="58.284" fill="#FFFFFF" width="25.357" height="41.869"/>
	</g>
	<rect x="219.082" y="90.407" fill="#FFFFFF" width="72.757" height="89.751"/>
	<g>
		
			<rect x="241.585" y="65.714" fill="#F9F5BC" stroke="#E1E2E3" stroke-width="3" stroke-miterlimit="10" width="5.749" height="19.461"/>
		
			<rect x="251.021" y="65.714" fill="#F9F5BC" stroke="#E1E2E3" stroke-width="3" stroke-miterlimit="10" width="5.75" height="19.461"/>
	</g>
	<rect x="289.551" y="83.225" fill="#A5654E" width="109.684" height="136.444"/>
	<g>
		<rect x="290.728" y="177.799" fill="#DBDCDD" width="109.097" height="43.049"/>
		<rect x="297.876" y="164.235" fill="#DBDCDD" width="43.639" height="56.612"/>
		<rect x="304.069" y="176.915" fill="#FFFFFF" width="31.254" height="43.933"/>
		<g>
			<rect x="309.206" y="204.644" fill="#414042" width="9.819" height="16.204"/>
			<rect x="320.365" y="204.644" fill="#414042" width="9.821" height="16.204"/>
		</g>
		<path fill="#F9F5BC" stroke="#FFFFFF" stroke-width="4" stroke-miterlimit="10" d="M308.199,198.047h23.588
			c0,0-1.537-12.188-11.966-12.188C309.396,185.858,308.199,198.047,308.199,198.047z"/>
		<rect x="349.771" y="164.235" fill="#DBDCDD" width="43.637" height="56.612"/>
		<rect x="355.962" y="176.915" fill="#FFFFFF" width="31.255" height="43.933"/>
		<g>
			<rect x="361.1" y="204.644" fill="#414042" width="9.822" height="16.204"/>
			<rect x="372.26" y="204.644" fill="#414042" width="9.82" height="16.204"/>
		</g>
		<path fill="#F9F5BC" stroke="#FFFFFF" stroke-width="4" stroke-miterlimit="10" d="M360.093,198.047h23.59
			c0,0-1.539-12.188-11.967-12.188C361.291,185.858,360.093,198.047,360.093,198.047z"/>
	</g>
	<rect y="128.853" fill="#A5654E" width="218.782" height="94.354"/>
	<rect x="19.619" y="89.69" fill="#A5654E" width="199.163" height="42.41"/>
	<rect y="180.158" fill="#DBDCDD" width="218.782" height="43.049"/>
	<rect x="19.56" y="88.162" fill="#E1E2E3" width="199.911" height="5.309"/>
	<rect x="289.646" y="83.249" fill="#ECEDED" width="109.884" height="5.307"/>
	<rect x="5.405" y="83.74" fill="#ECEDED" width="214.065" height="5.308"/>
	<rect x="7.147" y="166.595" fill="#DBDCDD" width="43.639" height="56.612"/>
	<rect x="13.339" y="179.272" fill="#FFFFFF" width="31.255" height="43.935"/>
	<g>
		<rect x="18.476" y="207.004" fill="#414042" width="9.821" height="16.203"/>
		<rect x="29.636" y="207.004" fill="#414042" width="9.82" height="16.203"/>
	</g>
	<rect x="64.349" y="166.595" fill="#DBDCDD" width="43.641" height="56.612"/>
	<rect x="70.542" y="179.272" fill="#FFFFFF" width="31.254" height="43.935"/>
	<g>
		<rect x="75.679" y="207.004" fill="#414042" width="9.821" height="16.203"/>
		<rect x="86.839" y="207.004" fill="#414042" width="9.82" height="16.203"/>
	</g>
	<rect x="118.013" y="166.595" fill="#DBDCDD" width="43.64" height="56.612"/>
	<rect x="124.206" y="179.272" fill="#FFFFFF" width="31.255" height="43.935"/>
	<g>
		<rect x="129.342" y="207.004" fill="#414042" width="9.821" height="16.203"/>
		<rect x="140.502" y="207.004" fill="#414042" width="9.82" height="16.203"/>
	</g>
	<rect x="169.907" y="166.595" fill="#DBDCDD" width="43.641" height="56.612"/>
	<rect x="176.1" y="179.272" fill="#FFFFFF" width="31.256" height="43.935"/>
	<rect x="162.334" y="94.944" fill="#FFFFFF" width="31.253" height="33.908"/>
	<rect x="119.678" y="94.944" fill="#FFFFFF" width="31.255" height="33.908"/>
	<rect x="76.831" y="94.944" fill="#FFFFFF" width="31.257" height="33.908"/>
	<rect x="33.979" y="94.944" fill="#FFFFFF" width="31.255" height="33.908"/>
	<g>
		<rect x="181.237" y="207.004" fill="#414042" width="9.821" height="16.203"/>
		<rect x="192.397" y="207.004" fill="#414042" width="9.819" height="16.203"/>
	</g>
	<g>
		
			<rect x="14.562" y="139.944" fill="#F9F5BC" stroke="#FFFFFF" stroke-width="4" stroke-miterlimit="10" width="11.09" height="14.38"/>
		
			<rect x="40.235" y="139.944" fill="#F9F5BC" stroke="#FFFFFF" stroke-width="4" stroke-miterlimit="10" width="11.089" height="14.38"/>
		
			<rect x="65.908" y="139.944" fill="#F9F5BC" stroke="#FFFFFF" stroke-width="4" stroke-miterlimit="10" width="11.088" height="14.38"/>
		
			<rect x="91.579" y="139.944" fill="#F9F5BC" stroke="#FFFFFF" stroke-width="4" stroke-miterlimit="10" width="11.09" height="14.38"/>
		
			<rect x="117.251" y="139.944" fill="#F9F5BC" stroke="#FFFFFF" stroke-width="4" stroke-miterlimit="10" width="11.091" height="14.38"/>
		
			<rect x="142.925" y="139.944" fill="#F9F5BC" stroke="#FFFFFF" stroke-width="4" stroke-miterlimit="10" width="11.089" height="14.38"/>
		
			<rect x="168.598" y="139.944" fill="#F9F5BC" stroke="#FFFFFF" stroke-width="4" stroke-miterlimit="10" width="11.088" height="14.38"/>
		
			<rect x="194.269" y="139.944" fill="#F9F5BC" stroke="#FFFFFF" stroke-width="4" stroke-miterlimit="10" width="11.09" height="14.38"/>
	</g>
	<g>
		
			<rect x="301.162" y="137.585" fill="#F9F5BC" stroke="#FFFFFF" stroke-width="4" stroke-miterlimit="10" width="11.091" height="14.38"/>
		
			<rect x="326.835" y="137.585" fill="#F9F5BC" stroke="#FFFFFF" stroke-width="4" stroke-miterlimit="10" width="11.09" height="14.38"/>
		
			<rect x="352.509" y="137.585" fill="#F9F5BC" stroke="#FFFFFF" stroke-width="4" stroke-miterlimit="10" width="11.089" height="14.38"/>
		
			<rect x="378.18" y="137.585" fill="#F9F5BC" stroke="#FFFFFF" stroke-width="4" stroke-miterlimit="10" width="11.09" height="14.38"/>
	</g>
	<g>
		
			<rect x="301.162" y="113.997" fill="#F9F5BC" stroke="#FFFFFF" stroke-width="4" stroke-miterlimit="10" width="11.091" height="14.379"/>
		
			<rect x="326.835" y="113.997" fill="#F9F5BC" stroke="#FFFFFF" stroke-width="4" stroke-miterlimit="10" width="11.09" height="14.379"/>
		
			<rect x="352.509" y="113.997" fill="#F9F5BC" stroke="#FFFFFF" stroke-width="4" stroke-miterlimit="10" width="11.089" height="14.379"/>
		
			<rect x="378.18" y="113.997" fill="#F9F5BC" stroke="#FFFFFF" stroke-width="4" stroke-miterlimit="10" width="11.09" height="14.379"/>
	</g>
	<g>
		
			<rect x="301.162" y="91.589" fill="#F9F5BC" stroke="#FFFFFF" stroke-width="4" stroke-miterlimit="10" width="11.091" height="14.377"/>
		
			<rect x="326.835" y="91.589" fill="#F9F5BC" stroke="#FFFFFF" stroke-width="4" stroke-miterlimit="10" width="11.09" height="14.377"/>
		
			<rect x="352.509" y="91.589" fill="#F9F5BC" stroke="#FFFFFF" stroke-width="4" stroke-miterlimit="10" width="11.089" height="14.377"/>
		
			<rect x="378.18" y="91.589" fill="#F9F5BC" stroke="#FFFFFF" stroke-width="4" stroke-miterlimit="10" width="11.09" height="14.377"/>
	</g>
	<g>
		
			<rect x="248.817" y="94.513" fill="#F9F5BC" stroke="#E1E2E3" stroke-width="3" stroke-miterlimit="10" width="12.975" height="19.459"/>
		
			<rect x="238.352" y="94.513" fill="#F9F5BC" stroke="#E1E2E3" stroke-width="3" stroke-miterlimit="10" width="7.667" height="19.459"/>
		
			<rect x="264.594" y="94.513" fill="#F9F5BC" stroke="#E1E2E3" stroke-width="3" stroke-miterlimit="10" width="7.666" height="19.459"/>
	</g>
	<g>
		
			<rect x="248.817" y="116.626" fill="#F9F5BC" stroke="#E1E2E3" stroke-width="3" stroke-miterlimit="10" width="12.975" height="19.46"/>
		
			<rect x="238.352" y="116.626" fill="#F9F5BC" stroke="#E1E2E3" stroke-width="3" stroke-miterlimit="10" width="7.667" height="19.46"/>
		
			<rect x="264.594" y="116.626" fill="#F9F5BC" stroke="#E1E2E3" stroke-width="3" stroke-miterlimit="10" width="7.666" height="19.46"/>
	</g>
	
		<rect x="279.705" y="94.513" fill="#F9F5BC" stroke="#E1E2E3" stroke-width="3" stroke-miterlimit="10" width="5.749" height="19.459"/>
	
		<rect x="279.705" y="116.921" fill="#F9F5BC" stroke="#E1E2E3" stroke-width="3" stroke-miterlimit="10" width="5.749" height="19.459"/>
	<g>
		
			<rect x="248.817" y="140.058" fill="#F9F5BC" stroke="#E1E2E3" stroke-width="3" stroke-miterlimit="10" width="12.975" height="19.461"/>
		
			<rect x="238.352" y="140.058" fill="#F9F5BC" stroke="#E1E2E3" stroke-width="3" stroke-miterlimit="10" width="7.667" height="19.461"/>
		
			<rect x="264.594" y="140.058" fill="#F9F5BC" stroke="#E1E2E3" stroke-width="3" stroke-miterlimit="10" width="7.666" height="19.461"/>
	</g>
	
		<rect x="279.705" y="140.058" fill="#F9F5BC" stroke="#E1E2E3" stroke-width="3" stroke-miterlimit="10" width="5.749" height="19.461"/>
	
		<rect x="225.451" y="94.513" fill="#F9F5BC" stroke="#E1E2E3" stroke-width="3" stroke-miterlimit="10" width="5.749" height="19.459"/>
	
		<rect x="225.451" y="116.921" fill="#F9F5BC" stroke="#E1E2E3" stroke-width="3" stroke-miterlimit="10" width="5.749" height="19.459"/>
	
		<rect x="225.451" y="140.058" fill="#F9F5BC" stroke="#E1E2E3" stroke-width="3" stroke-miterlimit="10" width="5.749" height="19.461"/>
	<g>
		<rect x="217.031" y="174.852" fill="#E1E2E3" width="75.597" height="53.073"/>
		<g>
			<rect x="232.21" y="208.846" fill="#414042" width="44.773" height="19.079"/>
			<rect x="228.277" y="203.942" fill="#FFFFFF" width="53.105" height="5.186"/>
			<rect x="231.491" y="205.888" fill="#FFFFFF" width="5.412" height="22.037"/>
			<rect x="244.683" y="205.888" fill="#FFFFFF" width="5.412" height="22.037"/>
			<rect x="259.901" y="205.888" fill="#FFFFFF" width="5.413" height="22.037"/>
			<rect x="274.108" y="205.888" fill="#FFFFFF" width="5.413" height="22.037"/>
		</g>
		<path fill="#F9F5BC" stroke="#FFFFFF" stroke-width="4" stroke-miterlimit="10" d="M231.491,201.584h46.677
			c0,0-3.043-12.187-23.678-12.187C233.857,189.397,231.491,201.584,231.491,201.584z"/>
		<polygon fill="#414042" points="254.83,158.338 274.249,166.553 292.983,174.866 254.83,174.966 216.676,174.866 235.409,166.553 
					"/>
	</g>
	<path fill="#F9F5BC" stroke="#FFFFFF" stroke-width="4" stroke-miterlimit="10" d="M180.23,200.405h23.59
		c0,0-1.539-12.188-11.966-12.188S180.23,200.405,180.23,200.405z"/>
	<path fill="#F9F5BC" stroke="#FFFFFF" stroke-width="4" stroke-miterlimit="10" d="M128.337,200.405h23.586
		c0,0-1.535-12.188-11.964-12.188C129.534,188.218,128.337,200.405,128.337,200.405z"/>
	<path fill="#F9F5BC" stroke="#FFFFFF" stroke-width="4" stroke-miterlimit="10" d="M74.672,200.405h23.59
		c0,0-1.539-12.188-11.967-12.188C75.869,188.218,74.672,200.405,74.672,200.405z"/>
	<path fill="#F9F5BC" stroke="#FFFFFF" stroke-width="4" stroke-miterlimit="10" d="M17.469,200.405h23.589
		c0,0-1.538-12.188-11.965-12.188C18.667,188.218,17.469,200.405,17.469,200.405z"/>
	<polygon fill="#414042" points="344.242,57.196 372.335,70.015 399.44,82.987 344.242,83.141 289.043,82.987 316.146,70.015 	"/>
	<g>
		
			<rect x="173.391" y="108.37" fill="#F9F5BC" stroke="#E1E2E3" stroke-width="3" stroke-miterlimit="10" width="9.14" height="19.461"/>
		
			<rect x="166.02" y="108.37" fill="#F9F5BC" stroke="#E1E2E3" stroke-width="3" stroke-miterlimit="10" width="5.399" height="19.461"/>
		
			<rect x="184.503" y="108.37" fill="#F9F5BC" stroke="#E1E2E3" stroke-width="3" stroke-miterlimit="10" width="5.4" height="19.461"/>
	</g>
	<g>
		
			<rect x="130.736" y="108.37" fill="#F9F5BC" stroke="#E1E2E3" stroke-width="3" stroke-miterlimit="10" width="9.138" height="19.461"/>
		
			<rect x="123.363" y="108.37" fill="#F9F5BC" stroke="#E1E2E3" stroke-width="3" stroke-miterlimit="10" width="5.401" height="19.461"/>
		
			<rect x="141.848" y="108.37" fill="#F9F5BC" stroke="#E1E2E3" stroke-width="3" stroke-miterlimit="10" width="5.399" height="19.461"/>
	</g>
	<g>
		
			<rect x="88.276" y="108.37" fill="#F9F5BC" stroke="#E1E2E3" stroke-width="3" stroke-miterlimit="10" width="9.139" height="19.461"/>
		
			<rect x="80.904" y="108.37" fill="#F9F5BC" stroke="#E1E2E3" stroke-width="3" stroke-miterlimit="10" width="5.399" height="19.461"/>
		
			<rect x="99.389" y="108.37" fill="#F9F5BC" stroke="#E1E2E3" stroke-width="3" stroke-miterlimit="10" width="5.399" height="19.461"/>
	</g>
	<g>
		
			<rect x="45.228" y="108.37" fill="#F9F5BC" stroke="#E1E2E3" stroke-width="3" stroke-miterlimit="10" width="9.138" height="19.461"/>
		
			<rect x="37.854" y="108.37" fill="#F9F5BC" stroke="#E1E2E3" stroke-width="3" stroke-miterlimit="10" width="5.4" height="19.461"/>
		
			<rect x="56.34" y="108.37" fill="#F9F5BC" stroke="#E1E2E3" stroke-width="3" stroke-miterlimit="10" width="5.399" height="19.461"/>
	</g>
	<polygon fill="#414042" points="177.977,89.635 186.339,92.412 194.408,95.221 177.977,95.256 161.542,95.221 169.612,92.412 	"/>
	<polygon fill="#414042" points="135.732,89.635 144.097,92.412 152.163,95.221 135.732,95.256 119.299,95.221 127.368,92.412 	"/>
	<polygon fill="#414042" points="92.684,89.635 101.047,92.412 109.114,95.221 92.684,95.256 76.25,95.221 84.319,92.412 	"/>
	<polygon fill="#414042" points="50.224,89.635 58.587,92.412 66.655,95.221 50.224,95.256 33.791,95.221 41.86,92.412 	"/>
	
		<rect x="37.839" y="100.546" fill="#F9F5BC" stroke="#E1E2E3" stroke-width="3" stroke-miterlimit="10" width="23.884" height="3.539"/>
	
		<rect x="80.299" y="100.546" fill="#F9F5BC" stroke="#E1E2E3" stroke-width="3" stroke-miterlimit="10" width="23.885" height="3.539"/>
	
		<rect x="123.349" y="100.546" fill="#F9F5BC" stroke="#E1E2E3" stroke-width="3" stroke-miterlimit="10" width="23.882" height="3.539"/>
	
		<rect x="165.807" y="100.546" fill="#F9F5BC" stroke="#E1E2E3" stroke-width="3" stroke-miterlimit="10" width="23.885" height="3.539"/>
	<polyline fill="#414042" points="5.405,83.74 35.541,56.963 196.525,56.963 219.471,83.74 	"/>
	<g>
		<rect x="44.327" y="64.891" fill="#FFFFFF" width="12.187" height="8.923"/>
		<ellipse fill="#FFFFFF" cx="50.42" cy="64.963" rx="6.093" ry="4.461"/>
	</g>
	<g>
		<rect x="85.952" y="64.891" fill="#FFFFFF" width="12.188" height="8.923"/>
		<ellipse fill="#FFFFFF" cx="92.046" cy="64.963" rx="6.094" ry="4.461"/>
	</g>
	<g>
		<rect x="127.577" y="64.891" fill="#FFFFFF" width="12.188" height="8.923"/>
		<ellipse fill="#FFFFFF" cx="133.671" cy="64.963" rx="6.094" ry="4.461"/>
	</g>
	<g>
		<rect x="169.203" y="64.891" fill="#FFFFFF" width="12.187" height="8.923"/>
		<ellipse fill="#FFFFFF" cx="175.296" cy="64.963" rx="6.093" ry="4.461"/>
	</g>
	<g>
		<path fill="#414042" d="M249.655,60.446H223.34c0,0,5.579-6.487,8.232-13.563c2.653-7.077,7.37-9.729,17.985-9.729
			c0.033,0,0.064,0,0.098,0V60.446z"/>
		<path fill="#414042" d="M248.699,60.446h26.316c0,0-5.579-6.487-8.232-13.563c-2.653-7.077-7.371-9.729-17.987-9.729
			c-0.033,0-0.064,0-0.097,0V60.446z"/>
	</g>
	<g>
		<path fill="#414042" d="M249.325,20.347h-8.146c0,0,1.728-2.137,2.548-4.465c0.822-2.328,2.284-3.202,5.568-3.202
			c0.011,0,0.021,0,0.03,0V20.347z"/>
		<path fill="#414042" d="M249.029,20.347h8.146c0,0-1.727-2.137-2.548-4.465c-0.822-2.328-2.282-3.202-5.567-3.202
			c-0.013,0-0.021,0-0.031,0V20.347z"/>
	</g>
	<polygon fill="#414042" points="249.178,0 250.21,7.931 251.206,15.956 249.178,16.051 247.149,15.956 248.145,7.931 	"/>
	<polygon fill="#414042" points="254.83,74.305 274.249,82.519 292.983,90.833 254.83,90.932 216.676,90.833 235.409,82.519 	"/>
</g>
</svg>
