<?xml version="1.0" encoding="utf-8"?>
<!-- Generator: Adobe Illustrator 15.0.2, SVG Export Plug-In . SVG Version: 6.00 Build 0)  -->
<!DOCTYPE svg PUBLIC "-//W3C//DTD SVG 1.1//EN" "http://www.w3.org/Graphics/SVG/1.1/DTD/svg11.dtd">
<svg version="1.1" id="Layer_1" xmlns="http://www.w3.org/2000/svg" xmlns:xlink="http://www.w3.org/1999/xlink" x="0px" y="0px"
	 viewBox="0 0 305.539 113.12" enable-background="new 0 0 305.539 113.12" preserveAspectRatio="xMidYMin meet"
	 xml:space="preserve">
<g>
	<g>
		<path fill="#DD7C1B" d="M85.136,36.673l-36.901,74.725L11.202,36.673h19.373l17.66,37.296l17.528-37.296H85.136z"/>
		<path fill="#DD7C1B" d="M143.916,101.514c-7.512,7.512-16.869,11.334-27.808,11.334c-11.07,0-20.427-3.822-27.939-11.334
			c-7.512-7.513-11.202-16.738-11.202-27.939c0-10.939,3.822-20.164,11.334-27.676c7.644-7.644,16.869-11.466,27.808-11.466
			s20.296,3.822,27.808,11.334c7.512,7.511,11.334,16.869,11.334,27.808C155.25,84.645,151.428,94.001,143.916,101.514z"/>
		<path fill="#DD7C1B" d="M178.975,111.134h-17.528V36.673h17.528V111.134z"/>
		<path fill="#DD7C1B" d="M260.025,93.606c-8.961,12.784-20.428,19.242-34.266,19.242c-11.201,0-20.559-3.69-28.07-11.203
			c-7.513-7.512-11.203-16.869-11.203-28.07c0-10.939,3.822-20.297,11.334-27.808c7.775-7.512,17.002-11.334,27.939-11.334
			c13.312,0,24.382,6.062,33.211,18.187l-14.232,10.411c-5.271-7.248-11.598-10.938-18.979-10.938
			c-6.193,0-11.334,2.109-15.419,6.194s-6.194,9.226-6.194,15.288c0,6.193,2.109,11.334,6.194,15.419s9.226,6.194,15.419,6.194
			c7.908,0,14.498-3.822,19.77-11.598L260.025,93.606z"/>
		<path fill="#DD7C1B" d="M305.496,111.134h-42.699V36.541h42.699v17.661h-25.172v11.201h18.715v17.66h-18.715v10.543h25.172
			V111.134z"/>
	</g>
	<g>
		<path fill="#FFFFFF" d="M78.391,29.928L41.49,104.653L4.457,29.928H23.83l17.66,37.297l17.528-37.297H78.391z"/>
		<path fill="#FFFFFF" d="M137.17,94.768c-7.512,7.513-16.869,11.334-27.808,11.334c-11.07,0-20.427-3.821-27.939-11.334
			c-7.512-7.512-11.202-16.736-11.202-27.939c0-10.938,3.822-20.164,11.334-27.675c7.644-7.644,16.869-11.466,27.808-11.466
			s20.296,3.822,27.808,11.334c7.512,7.512,11.334,16.87,11.334,27.807C148.504,77.899,144.683,87.256,137.17,94.768z"/>
		<path fill="#FFFFFF" d="M172.229,104.389h-17.527V29.928h17.527V104.389z"/>
		<path fill="#FFFFFF" d="M253.281,86.862c-8.963,12.783-20.428,19.24-34.266,19.24c-11.203,0-20.56-3.689-28.072-11.201
			c-7.512-7.513-11.201-16.869-11.201-28.072c0-10.938,3.821-20.295,11.334-27.807c7.775-7.512,17-11.334,27.939-11.334
			c13.311,0,24.381,6.062,33.211,18.187l-14.233,10.411c-5.272-7.248-11.598-10.938-18.978-10.938
			c-6.195,0-11.334,2.109-15.42,6.194c-4.086,4.086-6.194,9.225-6.194,15.287c0,6.194,2.108,11.334,6.194,15.42
			s9.225,6.194,15.42,6.194c7.906,0,14.496-3.822,19.768-11.598L253.281,86.862z"/>
		<path fill="#FFFFFF" d="M298.752,104.389h-42.701V29.796h42.701v17.66H273.58v11.203h18.714v17.659H273.58v10.544h25.172V104.389z
			"/>
	</g>
	<g>
		<g>
			<path fill-rule="evenodd" clip-rule="evenodd" fill="#F6921E" d="M103.814,90.676c1.816-2.695,7.798-2.639,9.755-0.117
				c-1.537,1.715-3.281,3.223-4.818,4.936C107.037,93.958,105.528,92.215,103.814,90.676z"/>
			<path fill-rule="evenodd" clip-rule="evenodd" fill="#F6921E" d="M98.997,85.741c-1.715-1.535-3.221-3.28-4.936-4.816
				c3.296-3.412,8.452-6.117,14.572-6.111c6.188,0.004,11.275,2.66,14.69,5.993c-1.539,1.714-3.282,3.222-4.819,4.935
				C114.438,80.599,102.85,80.484,98.997,85.741z"/>
			<path fill-rule="evenodd" clip-rule="evenodd" fill="#F6921E" d="M84.306,71.168c5.616-5.466,13.383-10.104,24.327-10.104
				c11.013,0,18.707,4.596,24.443,9.986c-1.576,1.598-3.359,3.613-4.937,4.818c-4.96-4.406-10.7-7.967-19.39-7.99
				c-7.575-0.021-13.48,2.811-17.745,6.463c-0.494,0.424-1.558,1.641-1.763,1.646c-0.535,0.01-1.997-1.998-2.467-2.469
				C85.784,72.53,84.946,71.768,84.306,71.168z"/>
			<path fill-rule="evenodd" clip-rule="evenodd" fill="#F6921E" d="M79.489,66.233c-1.714-1.537-3.223-3.281-4.936-4.818
				c7.887-7.742,19.131-14.149,34.08-14.219c15.008-0.07,26.201,6.545,34.197,14.104c-1.578,1.595-3.359,3.611-4.936,4.816
				c-6.888-6.418-16.106-11.986-29.262-11.986C95.551,54.129,86.247,59.739,79.489,66.233z"/>
		</g>
	</g>
</g>
<g>
	<path fill="#FFFFFF" d="M26.41,0.762L13.524,26.856L0.592,0.762h6.765l6.167,13.024l6.121-13.024H26.41z"/>
	<path fill="#FFFFFF" d="M48.083,23.404c-2.623,2.623-5.891,3.958-9.71,3.958c-3.866,0-7.133-1.335-9.756-3.958
		c-2.624-2.623-3.912-5.845-3.912-9.756c0-3.82,1.334-7.041,3.958-9.664c2.669-2.669,5.891-4.004,9.71-4.004
		c3.819,0,7.087,1.334,9.71,3.958c2.624,2.624,3.958,5.891,3.958,9.71C52.042,17.514,50.707,20.781,48.083,23.404z"/>
	<path fill="#FFFFFF" d="M66.167,6.883h-4.786v19.881h-6.121V6.883h-4.556V0.762h15.463V6.883z"/>
	<path fill="#FFFFFF" d="M79.743,26.764h-14.91V0.716h14.91v6.167h-8.79v3.912h6.535v6.167h-6.535v3.682h8.79V26.764z"/>
</g>
</svg>
